PathFileType  4	(X/Y/Z) C:\Users\antoi\Documents\MyRepositories\mobilecap\ResultsAnalysis
DataRate	CameraRate	NumFrames	NumMarkers	Units	OrigDataRate	OrigDataStartFrame	OrigNumFrames
100.0	100.0	4	51	mm	100.0	85	135
Frame#	Time	r_knee			r_shank_antsup			r_ankle			r_calc			r_5meta			r_toe			L_knee			L_shank_antsup			L_ankle			L_calc			L_5meta			L_toe			r_sh2			r_sh3			r_sh4			L_sh2			L_sh3			r_thigh1			r_thigh2			r_thigh3			r_thigh4			r_thigh5			L_thigh1			L_thigh2			L_thigh3			L_thigh4			r.ASIS			r.PSIS			L.ASIS			L.PSIS			C7			R_Shoulder			L_Shoulder			R_Sternum			L_Sternum			R_humerus			R_elbow_med			R_elbow_lat			R_forearm			R_wrist_radius			R_wrist_ulna			L_humerus			L_elbow_med			L_elbow_lat			L_forearm			L_wrist_radius			L_wrist_ulna			R_HJC			L_HJC			R_HJC_reg			L_HJC_reg			
		X1	Y1	Z1	X2	Y2	Z2	X3	Y3	Z3	X4	Y4	Z4	X5	Y5	Z5	X6	Y6	Z6	X7	Y7	Z7	X8	Y8	Z8	X9	Y9	Z9	X10	Y10	Z10	X11	Y11	Z11	X12	Y12	Z12	X13	Y13	Z13	X14	Y14	Z14	X15	Y15	Z15	X16	Y16	Z16	X17	Y17	Z17	X18	Y18	Z18	X19	Y19	Z19	X20	Y20	Z20	X21	Y21	Z21	X22	Y22	Z22	X23	Y23	Z23	X24	Y24	Z24	X25	Y25	Z25	X26	Y26	Z26	X27	Y27	Z27	X28	Y28	Z28	X29	Y29	Z29	X30	Y30	Z30	X31	Y31	Z31	X32	Y32	Z32	X33	Y33	Z33	X34	Y34	Z34	X35	Y35	Z35	X36	Y36	Z36	X37	Y37	Z37	X38	Y38	Z38	X39	Y39	Z39	X40	Y40	Z40	X41	Y41	Z41	X42	Y42	Z42	X43	Y43	Z43	X44	Y44	Z44	X45	Y45	Z45	X46	Y46	Z46	X47	Y47	Z47	X48	Y48	Z48	X49	Y49	Z49	X50	Y50	Z50	X51	Y51	Z51	

85	0.84000000	1055.95446	515.13514	-20.79598	1061.70005	436.28230	-38.45595	799.81806	221.56541	-66.53917	730.51724	241.05322	-110.40856	837.94663	109.28049	-33.05978	897.31182	100.80234	-82.54406	915.96713	493.64911	-310.73094	941.27563	395.07688	-312.36301	864.28262	96.55114	-257.28550	803.58644	63.97910	-201.94766	962.34301	41.63323	-308.88987	1012.70185	65.37289	-257.86191	970.96935	363.34767	-23.58824	1007.17457	493.84576	-15.46910	922.57085	419.80523	-22.52998	853.93815	412.25257	-307.57146	844.36992	290.53630	-303.01128	998.13405	827.76854	-6.51507	1037.65129	721.30539	-3.08741	936.85008	676.21862	-12.77377	890.18253	786.38917	-7.19946	987.09122	679.80219	13.71603	935.74943	758.30664	-378.86844	951.16043	624.60349	-347.39086	829.09575	752.03366	-336.38174	848.66675	615.84298	-311.41795	986.60886	968.45071	-62.79855	798.29781	1010.73623	-141.16306	990.50322	954.75122	-312.96063	791.44263	1017.85871	-241.82774	797.97576	1414.16824	-220.77466	898.11857	1394.29269	-38.79247	882.70445	1377.67517	-396.45846	937.32209	1394.77410	-196.80050	942.30440	1393.66210	-238.79046	909.82516	1261.89522	28.53035	868.54617	1044.72445	-6.50765	881.79064	1064.56170	62.46987	985.90350	967.79246	78.12139	1062.58780	852.99349	82.78841	1037.04258	837.91684	101.99314	907.84759	1258.30529	-449.43691	880.85363	1024.40599	-378.84708	891.41474	1044.29828	-455.71163	961.26997	952.86266	-465.82988	1000.52280	801.04895	-486.04440	971.53182	797.76758	-504.40616	906.23853	890.83654	-84.78609	906.45521	886.74342	-291.21778	920.92584	882.15284	-98.47605	909.71732	893.79554	-263.05493	
86	0.85000000	1073.42192	518.95238	-22.75543	1081.99848	440.40694	-40.46580	830.20640	213.29695	-66.67327	759.56626	229.56013	-109.69737	874.31467	103.31178	-33.39828	933.64086	97.96990	-83.37759	918.28717	493.91062	-310.16680	942.91670	395.29347	-311.85539	864.56887	96.87873	-257.04864	803.78959	64.01781	-201.89017	962.35230	41.62571	-308.93472	1012.75981	65.29919	-257.89353	994.85608	363.22932	-24.87398	1024.95787	495.31091	-17.04473	943.87046	417.42891	-23.22600	855.66742	412.94763	-306.86246	845.41156	291.24711	-302.46919	1010.45693	830.81163	-6.80223	1052.03557	725.04131	-4.15095	951.82343	678.55933	-11.55601	903.52114	787.97246	-5.62802	1002.12854	682.90149	13.74439	942.24347	758.13351	-378.40101	955.48500	624.24301	-346.80111	835.51249	753.86976	-335.43901	853.05412	617.32445	-310.00887	996.71954	970.38599	-63.64443	808.16219	1011.99090	-140.79599	999.76536	955.32232	-313.76931	801.05746	1018.53605	-241.39541	808.27218	1415.19395	-221.72345	907.18803	1395.24956	-39.20902	893.68310	1379.29876	-396.80639	947.24815	1395.86444	-196.94036	952.43532	1394.92275	-238.85599	917.91358	1262.75926	28.37079	875.55436	1046.05556	-7.35954	888.09270	1065.70087	61.88358	990.85700	967.74039	79.12117	1065.81517	851.95653	84.90206	1039.94460	837.23179	103.96285	921.25040	1260.75789	-450.15303	900.10865	1025.73682	-381.06316	911.82521	1046.22598	-457.70939	985.51402	957.67255	-466.33216	1031.80702	807.96810	-486.02727	1003.77542	803.33507	-504.74518	916.65900	892.47840	-84.60860	915.73607	887.37637	-291.01586	930.94741	883.82396	-98.68568	919.31930	894.53332	-263.31960	
87	0.86000000	1090.34884	522.37802	-24.65046	1101.78707	444.26049	-42.40885	861.18782	204.59607	-67.01755	789.49486	217.34710	-109.35744	911.24001	97.34313	-33.80173	970.55846	95.22782	-84.12481	920.72442	494.09976	-309.62074	944.67431	395.47479	-311.33970	864.90944	97.22393	-256.76652	803.92008	64.07950	-201.83638	962.36544	41.62029	-308.97567	1012.82102	65.23040	-257.91052	1018.68029	362.76085	-26.23389	1042.18881	496.16819	-18.37674	965.03455	414.40952	-23.84840	857.52307	413.63989	-306.14300	846.52602	291.97138	-301.90357	1022.72565	833.54085	-7.16489	1066.17310	728.43112	-5.29026	966.46524	680.82869	-10.13979	916.87693	789.47321	-4.00324	1016.93407	685.81142	13.79631	948.68973	757.87235	-377.87857	959.87832	623.85223	-346.16253	841.92238	755.53513	-334.39935	857.57683	618.68910	-308.56373	1006.83466	971.95340	-64.41975	818.07360	1013.02580	-140.37499	1009.11471	955.66111	-314.53529	810.72350	1019.05655	-240.90832	818.60017	1415.99089	-222.66067	916.22710	1395.92384	-39.60436	904.68856	1380.68896	-397.13839	957.20164	1396.73999	-197.06829	962.57054	1395.97104	-238.91786	925.96555	1263.38165	28.24520	882.68833	1047.07518	-8.02099	894.57201	1066.62860	61.43121	995.98007	967.54260	80.19587	1069.10726	850.78986	86.90689	1042.96495	836.46151	105.96578	934.63107	1263.02653	-450.90720	919.37932	1027.04802	-383.25931	932.06526	1048.17720	-459.64449	1009.47300	962.73169	-466.82541	1062.69292	815.24555	-485.57080	1035.62013	809.44993	-504.80495	927.05713	893.81077	-84.43340	925.04188	887.81823	-290.80908	940.96779	885.17135	-98.87834	928.92576	895.04962	-263.57453	
88	0.87000000	1106.67729	525.38603	-26.43364	1120.99337	447.80166	-44.23718	892.72683	195.58101	-67.55934	820.28906	204.47558	-109.41823	948.68198	91.49024	-34.24354	1008.01788	92.69667	-84.77072	923.28934	494.18031	-309.10216	946.57170	395.60497	-310.82283	865.28650	97.56997	-256.45394	803.97112	64.17273	-201.77906	962.37753	41.61006	-309.01107	1012.89657	65.16734	-257.91885	1042.38666	361.98012	-27.64002	1058.83284	496.40093	-19.50616	986.03594	410.77350	-24.44183	859.53040	414.31773	-305.42039	847.74563	292.70565	-301.33382	1034.90699	835.95570	-7.63261	1080.00262	731.47889	-6.51644	980.78839	682.92600	-8.63597	930.16379	790.85118	-2.40114	1031.49391	688.51339	13.85537	955.16629	757.52794	-377.29176	964.40581	623.43070	-345.47244	848.39291	756.97593	-333.27209	862.28242	619.92365	-307.12916	1016.95305	973.15108	-65.11714	828.04301	1013.85118	-139.93578	1018.56985	955.72850	-315.22762	820.45553	1019.42555	-240.40473	828.95924	1416.54204	-223.57933	925.25774	1396.29881	-39.97660	915.75464	1381.81386	-397.46132	967.19721	1397.37103	-197.18129	972.72406	1396.76725	-238.97445	933.99246	1263.75027	28.14531	889.95227	1047.76272	-8.47807	901.24748	1067.31755	61.10837	1001.28578	967.16253	81.34186	1072.51854	849.45465	88.83758	1046.14642	835.56885	108.01491	948.02805	1265.06941	-451.66783	938.63253	1028.30498	-385.44026	952.10759	1050.10359	-461.52697	1033.12749	967.96632	-467.30090	1093.23640	822.88491	-484.67308	1066.98025	816.03831	-504.59213	937.41148	894.84068	-84.24982	934.38374	888.04412	-290.58824	950.98486	886.19279	-99.03918	938.54192	895.33309	-263.79220	
